<svg xmlns="http://www.w3.org/2000/svg" width="400" height="50" viewBox="0 0 400 50">
  <polygon points="3.0,47.0 31.1,16.2 59.3,33.8 87.4,3.0 115.6,25.0 143.7,38.2 171.9,16.2 200.0,33.8 228.1,3.0 256.3,25.0 284.4,47.0 312.6,33.8 340.7,16.2 368.9,3.0 397.0,33.8 397.0,47.0 3.0,47.0" fill="#3B82F6" fill-opacity="0.3"/>
  <polyline points="3.0,47.0 31.1,16.2 59.3,33.8 87.4,3.0 115.6,25.0 143.7,38.2 171.9,16.2 200.0,33.8 228.1,3.0 256.3,25.0 284.4,47.0 312.6,33.8 340.7,16.2 368.9,3.0 397.0,33.8" fill="none" stroke="#3B82F6" stroke-width="2"/>
</svg>