<svg xmlns="http://www.w3.org/2000/svg" width="500" height="50" viewBox="0 0 500 50">
  <rect x="220" y="14.3" width="3" height="10.7" fill="#3B82F6"/>
  <rect x="224" y="25.0" width="3" height="14.3" fill="#EAB308"/>
  <rect x="228" y="7.1" width="3" height="17.9" fill="#3B82F6"/>
  <rect x="232" y="25.0" width="3" height="10.7" fill="#EAB308"/>
  <rect x="236" y="3.6" width="3" height="21.4" fill="#3B82F6"/>
  <rect x="240" y="25.0" width="3" height="17.9" fill="#EAB308"/>
  <rect x="244" y="10.7" width="3" height="14.3" fill="#3B82F6"/>
  <rect x="248" y="25.0" width="3" height="21.4" fill="#EAB308"/>
  <rect x="252" y="7.1" width="3" height="17.9" fill="#3B82F6"/>
  <rect x="256" y="25.0" width="3" height="14.3" fill="#EAB308"/>
  <rect x="260" y="0.0" width="3" height="25.0" fill="#3B82F6"/>
  <rect x="264" y="25.0" width="3" height="10.7" fill="#EAB308"/>
  <rect x="268" y="7.1" width="3" height="17.9" fill="#3B82F6"/>
  <rect x="272" y="25.0" width="3" height="17.9" fill="#EAB308"/>
  <rect x="276" y="10.7" width="3" height="14.3" fill="#3B82F6"/>
</svg>