<svg xmlns="http://www.w3.org/2000/svg" width="500" height="60" viewBox="0 0 500 60">
  <rect x="162" y="3.3" width="8" height="26.7" fill="#F41C80"/>
  <rect x="174" y="10.0" width="8" height="20.0" fill="#F41C80"/>
  <rect x="186" y="0.0" width="8" height="30.0" fill="#F41C80"/>
  <rect x="198" y="16.7" width="8" height="13.3" fill="#F41C80"/>
  <rect x="210" y="6.7" width="8" height="23.3" fill="#F41C80"/>
  <rect x="222" y="13.3" width="8" height="16.7" fill="#F41C80"/>
  <rect x="234" y="3.3" width="8" height="26.7" fill="#F41C80"/>
  <rect x="246" y="20.0" width="8" height="10.0" fill="#F41C80"/>
  <rect x="258" y="0.0" width="8" height="30.0" fill="#F41C80"/>
  <rect x="270" y="10.0" width="8" height="20.0" fill="#F41C80"/>
  <rect x="282" y="6.7" width="8" height="23.3" fill="#F41C80"/>
  <rect x="294" y="16.7" width="8" height="13.3" fill="#F41C80"/>
  <rect x="306" y="3.3" width="8" height="26.7" fill="#F41C80"/>
  <rect x="318" y="13.3" width="8" height="16.7" fill="#F41C80"/>
  <rect x="330" y="10.0" width="8" height="20.0" fill="#F41C80"/>
</svg>