<svg xmlns="http://www.w3.org/2000/svg" width="500" height="60" viewBox="0 0 500 60">
  <rect x="184" y="30.0" width="6" height="16.7" fill="#EF4444"/>
  <rect x="193" y="6.7" width="6" height="23.3" fill="#22C55E"/>
  <rect x="202" y="30.0" width="6" height="10.0" fill="#EF4444"/>
  <rect x="211" y="3.3" width="6" height="26.7" fill="#22C55E"/>
  <rect x="220" y="30.0" width="6" height="20.0" fill="#EF4444"/>
  <rect x="229" y="13.3" width="6" height="16.7" fill="#22C55E"/>
  <rect x="238" y="30.0" width="6" height="13.3" fill="#EF4444"/>
  <rect x="247" y="0.0" width="6" height="30.0" fill="#22C55E"/>
  <rect x="256" y="30.0" width="6" height="6.7" fill="#EF4444"/>
  <rect x="265" y="10.0" width="6" height="20.0" fill="#22C55E"/>
  <rect x="274" y="30.0" width="6" height="23.3" fill="#EF4444"/>
  <rect x="283" y="16.7" width="6" height="13.3" fill="#22C55E"/>
  <rect x="292" y="30.0" width="6" height="16.7" fill="#EF4444"/>
  <rect x="301" y="3.3" width="6" height="26.7" fill="#22C55E"/>
  <rect x="310" y="30.0" width="6" height="10.0" fill="#EF4444"/>
</svg>